<svg viewBox="0 0 1274.37 718" xmlns="http://www.w3.org/2000/svg"><path d="m930.77 536.42a53.07 53.07 0 1 1 53.06-53.08 53.14 53.14 0 0 1 -53.06 53.08m-586.54 0a53.07 53.07 0 1 1 53.06-53.08 53.13 53.13 0 0 1 -53.06 53.08m605.57-319.65 106.05-183.68a22.06 22.06 0 1 0 -38.21-22.09l-107.39 186c-82.12-37.48-174.35-58.35-272.76-58.35s-190.63 20.9-272.75 58.35l-107.38-186a22.06 22.06 0 1 0 -38.22 22.06l106.06 183.71c-182.11 99.05-306.67 283.41-324.89 501.23h1274.38c-18.24-217.82-142.79-402.18-324.89-501.23" fill="#3ddc84"/></svg>