<?xml version="1.0" encoding="UTF-8"?>
<svg width="70px" height="70px" viewBox="0 0 70 70" version="1.1" xmlns="http://www.w3.org/2000/svg" xmlns:xlink="http://www.w3.org/1999/xlink">
    <!-- Generator: Sketch 62 (91390) - https://sketch.com -->
    <title>Icon_Angular</title>
    <desc>Created with Sketch.</desc>
    <g id="Icon_Angular" stroke="none" stroke-width="1" fill="none" fill-rule="evenodd">
        <g id="Group-5" transform="translate(10.000000, 8.000000)">
            <polygon id="Fill-1" fill="#000000" points="25.2197802 -0.000168131868 0 8.96686484 3.92307692 42.0333593 25.2197802 53.8020297 46.7967033 41.892689 51 8.82675495"></polygon>
            <polygon id="Fill-2" fill="#DE3641" points="25.2197802 -0.000168131868 0 8.96686484 3.92307692 42.0333593 25.2197802 53.8020297"></polygon>
            <polygon id="Fill-3" fill="#B13138" points="25.2197802 -0.000168131868 25.2197802 53.8020297 46.7967033 41.892689 51 8.82675495"></polygon>
            <polygon id="Fill-4" fill="#FFFFFF" points="25.2197802 6.02472527 41.6126374 41.0521978 36.0082418 41.0521978 32.5054945 33.0659341 25.2197802 33.0659341 25.2197802 28.3021978 30.543956 28.3021978 25.2197802 17.2895604 20.7362637 28.3021978 25.2197802 28.3021978 25.2197802 33.0659341 18.5505495 33.0659341 15.4120879 41.0521978 9.38736264 41.0521978"></polygon>
        </g>
    </g>
</svg>