<svg width="288" height="432" viewBox="0 0 288 432" fill="none" xmlns="http://www.w3.org/2000/svg">
<path d="M144 216C144 176.641 175.907 144.733 215.267 144.733C254.626 144.733 286.534 176.641 286.534 216C286.534 255.36 254.626 287.267 215.267 287.267C175.907 287.267 144 255.36 144 216Z" fill="#1ABCFE"/>
<path d="M1.46606 358.534C1.46606 319.175 33.3733 287.267 72.733 287.267H144V358.534C144 397.894 112.093 429.801 72.733 429.801C33.3733 429.801 1.46606 397.894 1.46606 358.534Z" fill="#0ACF83"/>
<path d="M144 2.19946V144.733H215.267C254.627 144.733 286.534 112.826 286.534 73.4664C286.534 34.1068 254.627 2.19946 215.267 2.19946H144Z" fill="#FF7262"/>
<path d="M1.46606 73.4665C1.46606 112.826 33.3733 144.733 72.733 144.733H144V2.19946H72.733C33.3733 2.19946 1.46606 34.1068 1.46606 73.4665Z" fill="#F24E1E"/>
<path d="M1.46606 216C1.46606 255.36 33.3733 287.267 72.733 287.267H144V144.733H72.733C33.3733 144.733 1.46606 176.641 1.46606 216Z" fill="#A259FF"/>
</svg>
