<svg fill="none" height="432" viewBox="0 0 288 432" width="288" xmlns="http://www.w3.org/2000/svg"><path d="m144 216c0-39.359 31.907-71.267 71.267-71.267 39.359 0 71.267 31.908 71.267 71.267 0 39.36-31.908 71.267-71.267 71.267-39.36 0-71.267-31.907-71.267-71.267z" fill="#1abcfe"/><path d="m1.46606 358.534c0-39.359 31.90724-71.267 71.26694-71.267h71.267v71.267c0 39.36-31.907 71.267-71.267 71.267-39.3597 0-71.26694-31.907-71.26694-71.267z" fill="#0acf83"/><path d="m144 2.19946v142.53354h71.267c39.36 0 71.267-31.907 71.267-71.2666s-31.907-71.26694-71.267-71.26694z" fill="#ff7262"/><path d="m1.46606 73.4665c0 39.3595 31.90724 71.2665 71.26694 71.2665h71.267v-142.53354h-71.267c-39.3597 0-71.26694 31.90734-71.26694 71.26704z" fill="#f24e1e"/><path d="m1.46606 216c0 39.36 31.90724 71.267 71.26694 71.267h71.267v-142.534h-71.267c-39.3597 0-71.26694 31.908-71.26694 71.267z" fill="#a259ff"/></svg>