<svg fill="none" height="44" viewBox="0 0 44 44" width="44" xmlns="http://www.w3.org/2000/svg"><path d="m9.89282 18.0063h31.3277v24.4208h-31.3277z" fill="none"/><path d="m37.0631 20.0376h-13.3575l-11.6861 11.6889 6.6774 6.6773z" fill="#54c5f8"/><path d="m8.68014 28.3864-6.68014-6.6801 21.7063-21.7063h13.3575z" fill="#54c5f8"/><path d="m18.6975 38.4039 5.0087 5.0087h13.3575l-11.6888-11.686z" fill="#01579b"/><path d="m18.6975 38.4039 9.906-3.4292-3.2286-3.2481z" fill="none"/><path d="m18.6966 25.0456-6.6776 6.6775 6.6776 6.6776 6.6775-6.6776z" fill="#29b6f6"/><path d="m37.0638 20.0376-11.6861 11.6861 11.6861 11.6889h-13.3575l-5.0087-5.0087-6.6802-6.6802 11.6889-11.6861zm-13.3575-20.0376-21.7063 21.7063 6.68014 6.6801 28.38366-28.3864z" fill="none"/></svg>