<svg width="44" height="44" viewBox="0 0 44 44" fill="none" xmlns="http://www.w3.org/2000/svg" xmlns:xlink="http://www.w3.org/1999/xlink">
  <g clip-path="url(#clip0)">
    <rect x="9.89282" y="18.0063" width="31.3277" height="24.4208" fill="url(#pattern0)"/>
    <path d="M37.0631 20.0376H23.7056L12.0195 31.7265L18.6969 38.4038L37.0631 20.0376Z" fill="#54C5F8"/>
    <path d="M8.68014 28.3864L2 21.7063L23.7063 0H37.0638L8.68014 28.3864Z" fill="#54C5F8"/>
    <path d="M18.6975 38.4039L23.7062 43.4126H37.0637L25.3749 31.7266L18.6975 38.4039Z" fill="#01579B"/>
    <path d="M18.6975 38.4039L28.6035 34.9747L25.3749 31.7266L18.6975 38.4039Z" fill="url(#paint0_linear)"/>
    <path d="M18.6966 25.0456L12.019 31.7231L18.6966 38.4007L25.3741 31.7231L18.6966 25.0456Z" fill="#29B6F6"/>
    <path d="M37.0638 20.0376L25.3777 31.7237L37.0638 43.4126H23.7063L18.6976 38.4039L12.0174 31.7237L23.7063 20.0376H37.0638ZM23.7063 0L2 21.7063L8.68014 28.3864L37.0638 0H23.7063Z" fill="url(#paint1_radial)"/>
  </g>
</svg>
