<svg height="70" viewBox="0 0 70 70" width="70" xmlns="http://www.w3.org/2000/svg"><path d="m34.9999731 6.99997308c4.5096154 0 8.8307692 1.05 12.8424423 3.12307692l.5248654.2692308-.4575577.3634615c-1.1309039.9019231-2.0192308 2.0730769-2.58475 3.3923077l-.1615385.3634615-.3634615-.175c-3.0825577-1.4673077-6.3806346-2.2076923-9.8-2.2076923-12.6134616 0-22.8711539 10.2576923-22.8711539 22.8711539 0 12.6134615 10.2442308 22.8576923 22.8576923 22.8576923 12.6134616 0 22.8711539-10.2576923 22.8711539-22.8711539 0-3.0288461-.5921731-5.9903846-1.75-8.776923l-.1480769-.3634616.376923-.1346154c1.3461539-.4980769 2.5576923-1.3326923 3.5134616-2.4096153l.3903846-.4442308.2423077.5384615c1.6692308 3.6615385 2.5173077 7.5653846 2.5173077 11.6038462 0 15.4403846-12.5596154 28-28 28s-28.00000002-12.5596154-28.00000002-28 12.55961542-28.00000002 28.00000002-28.00000002zm.0000269 15.23851542c7.0403846 0 12.7615385 5.7211538 12.7615385 12.7615384s-5.7211539 12.7615385-12.7615385 12.7615385-12.7615385-5.7211539-12.7615385-12.7615385 5.7211539-12.7615384 12.7615385-12.7615384zm18.3211-10.5c3.2117885 0 5.8153846 2.6035961 5.8153846 5.8153846 0 3.2117884-2.6035961 5.8153846-5.8153846 5.8153846-3.2116538 0-5.81525-2.6035962-5.81525-5.8153846 0-3.2117885 2.6035962-5.8153846 5.81525-5.8153846z" fill="#5195ff" fill-rule="evenodd"/></svg>