<svg height="70" viewBox="0 0 70 70" width="70" xmlns="http://www.w3.org/2000/svg"><path d="m45.0806668 20.3497288c1.8016094.0774081 6.8567161.7388957 10.1113966 5.6034744-.2605164.1671918-6.031156 3.6211955-5.9554382 10.7929729.0854191 8.5721607 7.3472252 11.4139365 7.4300415 11.4530046-.06507.2004361-1.1551691 4.0674449-3.8157017 8.0647614-2.2985072 3.453761-4.6810137 6.8958744-8.4453693 6.968672-3.7002321.0774082-4.8949163-2.2402249-9.1225699-2.2348864-4.2281269.0050958-5.5477454 2.1870827-9.0468522 2.3317073-3.635872.1438966-6.4059588-3.7226269-8.7309672-7.1577032-4.7562582-7.0273955-8.39804565-19.8640399-3.5407516-28.5424851 2.4142134-4.3086476 6.7317818-7.0409844 11.4239165-7.1166939 3.5655965-.0742536 6.9395324 2.4530366 9.1192573 2.4489114 2.1813813-.0024266 6.2694303-3.0533742 10.5730382-2.6117354zm.0819409-13.68306213c.3558734 3.31811484-.9424495 6.64763463-2.8734889 9.04534513-1.9305662 2.3930999-5.0967515 4.2567186-8.194081 4.0106627-.4235462-3.2521117 1.1419185-6.6425388 2.9290941-8.7633757 1.9958728-2.39528388 5.3598707-4.17785458 8.1384758-4.29263213z" fill="#434242" fill-rule="evenodd"/></svg>