<svg height="70" viewBox="0 0 70 70" width="70" xmlns="http://www.w3.org/2000/svg"><path d="m51.6068747 60c-5.9161274 0-9.7510033-2.7855394-9.940208-7.218542h5.0217053c.2408059 1.9284503 2.2704562 3.1638516 5.1937095 3.1638516 2.6996478 0 4.6088951-1.2526686 4.6088951-3.0484742 0-1.5156035-1.2384307-2.389175-4.282087-3.0162941l-3.232861-.6585144c-4.5228929-.9065365-6.7409288-3.1646365-6.7409288-6.7899975 0-4.4824501 3.7652551-7.4320294 9.4921779-7.4320294 5.4680973 0 9.3381931 2.9338817 9.492997 7.1683097h-4.8841019c-.2416251-1.8774331-2.0632321-3.1301017-4.5753133-3.1301017-2.5956262 0-4.3156688 1.1529888-4.3156688 2.9660617 0 1.466156 1.1868294 2.3075475 4.0928823 2.9009168l2.992055.6090669c4.9873045 1.0046465 7.1365387 3.0649567 7.1365387 6.7562477 0 4.7956172-3.8340569 7.7294989-10.059792 7.7294989zm-13.2735414-6.5266783c0 5.2535883-3.1297079 8.193345-8.3337383 8.193345-5.0331276 0-8.3329283-3.0073374-8.3329283-7.7878613h4.9659004c.0340186 1.9598378 1.326724 3.2261698 3.2989908 3.2261698 2.109151 0 3.2657822-1.266332 3.2657822-3.6654438v-16.7728647h5.1359932zm-31.66666663 9.8600116h56.66666663v-56.66666663h-56.66666663z" fill="#f90" fill-rule="evenodd"/></svg>