<svg height="70" viewBox="0 0 70 70" width="70" xmlns="http://www.w3.org/2000/svg"><path d="m23.9381606 8.33333333c.057092.03167552.1119086.08539968.1716897.09171408 1.7759542.18736172 3.3937676.84333478 4.951593 1.67331619 2.3553552 1.2549094 4.4502798 2.871603 6.4123 4.6671701.2609477.238912.4340853.2431561.6923439.0042441.5935706-.5489388 1.1968634-1.089907 1.8250822-1.5985785 2.2319661-1.8072643 4.5931131-3.40180566 7.3520425-4.3079739.6137389-.20164675 1.2436126-.35453806 1.8661429-.52989207h2.0685506c.1587613.04803085.3155574.10423937.4765941.14274686 1.9933587.47627143 3.1971517 1.83076211 3.9303495 3.64258101.9508093 2.349371 1.1215681 4.8222352.8969235 7.3143531-.1801707 1.9990771-.4849716 3.9867676-.7383691 6.0115164 1.0958147.4091938 2.2931952.8254267 3.4667874 1.300663 2.5379047 1.0276945 4.9416639 2.3002015 6.9281965 4.2224706 1.4473648 1.4006583 2.5318025 3.0100023 2.420411 5.1624883-.0729164 1.4075937-.7029969 2.5751367-1.5730293 3.6320225-1.6375681 1.9891397-3.7665203 3.3239625-6.066128 4.3767077-1.6074707.7359899-3.2895126 1.3091512-4.938044 1.9552903-.0778809.0305369-.1546241.0640757-.2623956.1090011.1611401.8547214.3433794 1.6922593.4739049 2.5378714.48311 3.1281126.7497462 6.2591237-.0522309 9.3795762-.3472062 1.3513852-.8851328 2.6104353-1.8949992 3.6177374-1.2933613 1.290001-2.8784916 1.686152-4.6428618 1.4920618-2.9558554-.3252434-5.4572502-1.7330441-7.8172595-3.4091552-1.2746409-.9053401-2.4490605-1.9521849-3.6688848-2.9350576-.1047721-.084468-.2103716-.1681079-.3162814-.252783-.9881466.8194228-1.9325434 1.647748-2.9236894 2.415517-2.2604086 1.7508487-4.6593068 3.2626818-7.4696396 3.9752774-1.5260732.3869382-3.0632131.4962498-4.5509147-.1802192-1.8470089-.8399188-2.7646179-2.4333215-3.3100947-4.2705015-.7372314-2.4823876-.7778784-5.0256418-.4519783-7.5744858.1916512-1.4992043.4477378-2.990852.7104437-4.4794978.0755021-.4278265-.2308502-.3942878-.4414287-.4819648-1.9678122-.8185947-3.9848558-1.5351239-5.8959897-2.4693446-2.14756927-1.0499503-4.08776629-2.4360129-5.46386957-4.4639707-1.52855546-2.2528953-1.46691266-4.6362192.17189655-6.8130311 1.26791808-1.6839782 2.93030877-2.9015188 4.74225562-3.9292134 1.9838435-1.1252054 4.0757687-2.0063231 6.2557107-2.6694387.4924185-.1497858.6292531-.3377686.5059675-.8740786-.6479735-2.8164297-.9466722-5.6767496-.7530558-8.5632588.1453156-2.1684272.5864341-4.2692593 2.0267658-6.0163815.8389007-1.01744662 1.9269583-1.58470752 3.2159756-1.79546357.1111846-.01811509.2165773-.07246034.3246591-.1100362zm-3.2954079 38.69267967c-.610843 2.8658062-1.080404 5.7540751-.7065135 8.690789.1392135 1.0928053.4602526 2.1879915.8693084 3.2138228.4407047 1.1049166 1.3836535 1.6815973 2.5956173 1.5631764.8290751-.081052 1.6732506-.2337363 2.4571278-.5077399 2.254927-.7879544 4.1842642-2.1474137 6.0195857-3.6438231.6615225-.539312 1.2951195-1.1128873 1.9151675-1.6481621-.0430258-.1215263-.0464389-.1597233-.0667107-.1840492-1.6432566-1.9894503-3.2842378-3.9809708-4.9405262-5.959552-.1148046-.1370535-.3377944-.2240059-.5232399-.2537147-.6776572-.1082764-1.3649331-.158067-2.0409355-.2742106-1.8428717-.3167551-3.6816063-.655973-5.5788809-.9965366zm30.4318957.0031055c-2.2431362.3866276-4.3860512.7898176-6.5412741 1.1113345-.8954755.1336375-1.616262.2715192-2.2328969 1.1292425-1.3334911 1.8551916-2.8619432 3.5699136-4.3916363 5.44115 1.0929187.8738716 2.1889402 1.8152349 3.3518793 2.6647805 1.829633 1.3367897 3.7578325 2.5240005 6.0259982 2.9537938 1.9426793.367995 3.1651927.0894367 3.9230062-2.08251.3574455-1.0245891.5442357-2.1359236.6310114-3.2222075.1485219-1.8572619.0192375-3.7186644-.2945617-5.5594674-.1430402-.8395047-.3226938-1.6726951-.4715261-2.4361164zm-11.7399554 1.623629h-6.9903565c1.2054479 1.3851311 2.3294983 2.6763742 3.5243965 4.0494975 1.1904509-1.3909278 2.2974358-2.6843448 3.46596-4.0494975zm-3.4774404-22.9136138c-1.7777124.0943019-3.564423.1809438-5.3494787.2952241-.1889621.0120077-.4362573.1385027-.540926.291187-2.0106312 2.9322627-3.7740705 6.0084109-5.2875256 9.2261673-.0760192.1615865-.0944293.4166469-.0212026.5724366 1.5193504 3.2348364 3.3084398 6.3158498 5.3455484 9.2510109.1085989.1565143.3516536.2953276.5410294.3078529 1.3898592.0916105 2.7825109.2115842 4.1734043.2024749 2.1327791-.013664 4.2653513-.1138663 6.3967858-.2081682.2134744-.0094199.4904534-.1807368.6152904-.3616806 1.9787755-2.8704644 3.6919491-5.8955798 5.2130578-9.0320771.169104-.3486377.1441779-.6337174-.017893-.9694158-1.5100419-3.123972-3.2484518-6.114617-5.2175051-8.9699682-.1073578-.1557898-.343276-.3008139-.5282044-.3127181-1.7677834-.1141768-3.537325-.1984378-5.3223807-.2923257zm12.8035007 13.4869384c-1.1743161 2.0532153-2.2775776 3.9825235-3.4486875 6.030149 1.7647839-.3456358 3.4223135-.6705686 5.19351-1.0176536-.6029825-1.7321125-1.1606638-3.334107-1.7448225-5.0124954zm-25.6591289.0493766c-.5697823 1.6713493-1.1202236 3.2865937-1.6969355 4.978646 1.7628188.3383898 3.4108331.6547309 5.1554486.9896011-1.1830041-2.0414146-2.2855415-3.944016-3.4585131-5.9682471zm30.116752-11.1058919c-.0787083.0990636-.108392.1223544-.1195622.1524772-.8818231 2.4060972-1.7677833 4.8106416-2.6319203 7.2231567-.0658834.1839457-.0248227.442008.0488177.6341314.332623.8676607.7202694 1.714515 1.0411016 2.5863164.56368 1.5318114 1.0929187 3.0763552 1.6886612 4.7624036 1.6104701-.659803 3.2244567-1.2526321 4.7780416-1.9754757 1.7698519-.8235634 3.4285192-1.8491877 4.7643892-3.3116443.6591436-.7216014 1.233787-1.5048976 1.1750401-2.5552619-.0521274-.9327715-.5767119-1.6482656-1.183728-2.2933696-1.7755404-1.8872811-4.0258132-3.0407461-6.3699982-4.0270348-1.0549608-.4438713-2.1442595-.8062765-3.1908427-1.195699zm-34.5879241-.0152167c-1.2891208.5016326-2.6014093.9612381-3.8710856 1.5179405-2.0740323.9096877-4.0383279 2.0076688-5.62893989 3.6701159-1.34455788 1.4052129-1.5753047 2.6407651-.71695963 4.0336598.21481898.3486377.48476483.6709827.76815626.9683806 1.68752356 1.7702059 3.80851196 2.8740874 6.01193206 3.8281829 1.1314971.4900389 2.3064339.879565 3.4862317 1.3237468.0837763-.1971956.1415923-.3186184.187721-.4443888.8351773-2.2759791 1.6754225-4.5501985 2.4921897-6.832699.0779844-.2177951.0751918-.5135367-.0054816-.7301931-.3237282-.8703522-.7190282-1.714308-1.039757-2.5856953-.5690583-1.5455789-1.1030546-3.1042007-1.684007-4.7490503zm17.3893111 1.9292619c3.1837092.0110518 5.7254997 2.5803506 5.7093599 5.7718982-.0161901 3.1874295-2.5652573 5.6767336-5.8063495 5.6576941-3.0423311-.0181266-5.7263313-2.4070514-5.7055404-5.7290406.0217265-3.4586081 2.8632176-5.7109141 5.80253-5.7005517zm-9.4685206-3.6786614c-1.7628189.3418058-3.4298638.6649789-5.1838913 1.0051284.5924329 1.714929 1.1454599 3.3157849 1.7314803 5.0128059 1.1820733-2.0605649 2.2876101-3.9875957 3.452411-6.0179343zm18.7506871-.007039c1.176695 2.0347897 2.2905061 3.9606819 3.4618228 5.9863623.5769188-1.6964 1.122499-3.3004647 1.6955909-4.9851675-1.7444087-.3387003-3.4012143-.6603207-5.1574137-1.0011948zm1.8869318-15.1043566c-1.7143113.3446007-3.2245601 1.170959-4.6781306 2.1050762-1.624743 1.0439464-3.1182365 2.2552762-4.5554655 3.607179.1088058.154444.1710691.2571306.2468815.3484307 1.5827515 1.9053962 3.1634344 3.8124487 4.7579767 5.7079075.1171833.1393309.3262104.2460546.5083463.2778336.6253228.1090011 1.2607816.1591022 1.8865181.2659294 1.9092722.325968 3.8158553.6680843 5.7640162 1.0111322.0342345-.1395379.0943259-.3182043.1207-.501529.2386073-1.6655525.5564401-3.3253082.6838628-4.999556.1506939-1.9794093.0316488-3.9606819-.6827251-5.8522071-.4188815-1.1094712-1.0864028-1.9872764-2.3670425-2.0946212-.5553024-.0464782-1.1357377.0139745-1.6849379.1244247zm-26.6462413 2.1831264c-.3565147 1.0423936-.5897437 2.1777435-.6051544 3.274793-.0250295 1.7823172.1393168 3.5709488.295389 5.3506781.0756055.862485.314006 1.710685.4639759 2.4887019 2.593859-.4221332 5.0633981-.8384696 7.5394532-1.2121579.3872326-.0585893.5980179-.2242129.8229728-.5108453 1.0519614-1.3399986 2.1203678-2.6673684 3.2006684-3.9846973.5185856-.6321647 1.0768874-1.2317222 1.6729402-1.9093298-1.1872446-.9456074-2.2988837-1.8974256-3.4787849-2.7552524-1.8180491-1.3216765-3.7314584-2.516858-5.9864889-2.9079368-2.0718602-.3592997-3.1698469-.0411988-3.9249713 2.1660465zm15.3565059 5.4762415c-1.1890029 1.3861661-2.2956774 2.6762706-3.4615125 4.035523h6.97236c-1.2007936-1.3802659-2.3240166-2.671302-3.5108475-4.035523z" fill="#04b5e5" fill-rule="evenodd"/></svg>