<svg width="24" height="24" viewBox="0 0 24 24" fill="none" xmlns="http://www.w3.org/2000/svg">
<path d="M20 4H16.83L15 2H9L7.17 4H4C2.9 4 2 4.9 2 6V18C2 19.1 2.9 20 4 20H20C21.1 20 22 19.1 22 18V6C22 4.9 21.1 4 20 4ZM20 18H4V6H8.05L8.64 5.35L9.88 4H14.12L15.36 5.35L15.95 6H20V18ZM12 7C9.24 7 7 9.24 7 12C7 14.76 9.24 17 12 17C14.76 17 17 14.76 17 12C17 9.24 14.76 7 12 7ZM12 15.2C10.23 15.2 8.8 13.77 8.8 12C8.8 10.23 10.23 8.8 12 8.8C13.77 8.8 15.2 10.23 15.2 12C15.2 13.77 13.77 15.2 12 15.2Z" fill="black"/>
</svg>
