<svg width="24" height="24" viewBox="0 0 24 24" fill="none" xmlns="http://www.w3.org/2000/svg">
<path d="M12 2C6.48 2 2 6.48 2 12C2 17.52 6.48 22 12 22C17.52 22 22 17.52 22 12C22 6.48 17.52 2 12 2ZM12 20C7.59 20 4 16.41 4 12C4 7.59 7.59 4 12 4C16.41 4 20 7.59 20 12C20 16.41 16.41 20 12 20ZM12.31 11.14C10.54 10.69 9.97 10.2 9.97 9.47C9.97 8.63 10.76 8.04 12.07 8.04C13.45 8.04 13.97 8.7 14.01 9.68H15.72C15.67 8.34 14.85 7.11 13.23 6.71V5H10.9V6.69C9.39 7.01 8.18 7.99 8.18 9.5C8.18 11.29 9.67 12.19 11.84 12.71C13.79 13.17 14.18 13.86 14.18 14.58C14.18 15.11 13.79 15.97 12.08 15.97C10.48 15.97 9.85 15.25 9.76 14.33H8.04C8.14 16.03 9.4 16.99 10.9 17.3V19H13.24V17.33C14.76 17.04 15.96 16.17 15.97 14.56C15.96 12.36 14.07 11.6 12.31 11.14V11.14Z" fill="black"/>
</svg>
