<svg width="24" height="24" viewBox="0 0 24 24" fill="none" xmlns="http://www.w3.org/2000/svg">
<path d="M17 12C14.24 12 12 14.24 12 17C12 19.76 14.24 22 17 22C19.76 22 22 19.76 22 17C22 14.24 19.76 12 17 12ZM18.65 19.35L16.5 17.2V14H17.5V16.79L19.35 18.64L18.65 19.35ZM18 3H14.82C14.4 1.84 13.3 1 12 1C10.7 1 9.6 1.84 9.18 3H6C4.9 3 4 3.9 4 5V20C4 21.1 4.9 22 6 22H12.11C11.52 21.43 11.04 20.75 10.69 20H6V5H8V8H16V5H18V10.08C18.71 10.18 19.38 10.39 20 10.68V5C20 3.9 19.1 3 18 3ZM12 5C11.45 5 11 4.55 11 4C11 3.45 11.45 3 12 3C12.55 3 13 3.45 13 4C13 4.55 12.55 5 12 5Z" fill="black"/>
</svg>
