<svg width="24" height="24" viewBox="0 0 24 24" fill="none" xmlns="http://www.w3.org/2000/svg">
<path d="M12 12C13.65 12 15 10.65 15 9C15 7.35 13.65 6 12 6C10.35 6 9 7.35 9 9C9 10.65 10.35 12 12 12ZM12 8C12.55 8 13 8.45 13 9C13 9.55 12.55 10 12 10C11.45 10 11 9.55 11 9C11 8.45 11.45 8 12 8ZM18 16.58C18 14.08 14.03 13 12 13C9.97 13 6 14.08 6 16.58V18H18V16.58ZM8.48 16C9.22 15.49 10.71 15 12 15C13.29 15 14.78 15.49 15.52 16H8.48ZM19 3H5C3.89 3 3 3.9 3 5V19C3 20.1 3.89 21 5 21H19C20.1 21 21 20.1 21 19V5C21 3.9 20.1 3 19 3ZM19 19H5V5H19V19Z" fill="black"/>
</svg>
