<svg width="24" height="24" viewBox="0 0 24 24" fill="none" xmlns="http://www.w3.org/2000/svg">
<path d="M9 12C10.93 12 12.5 10.43 12.5 8.5C12.5 6.57 10.93 5 9 5C7.07 5 5.5 6.57 5.5 8.5C5.5 10.43 7.07 12 9 12ZM9 7C9.83 7 10.5 7.67 10.5 8.5C10.5 9.33 9.83 10 9 10C8.17 10 7.5 9.33 7.5 8.5C7.5 7.67 8.17 7 9 7ZM9.05 17H4.77C5.76 16.5 7.47 16 9 16C9.11 16 9.23 16.01 9.34 16.01C9.68 15.28 10.27 14.68 10.98 14.2C10.25 14.07 9.56 14 9 14C6.66 14 2 15.17 2 17.5V19H9V17.5C9 17.33 9.02 17.16 9.05 17ZM16.5 14.5C14.66 14.5 11 15.51 11 17.5V19H22V17.5C22 15.51 18.34 14.5 16.5 14.5ZM17.71 12.68C18.47 12.25 19 11.44 19 10.5C19 9.12 17.88 8 16.5 8C15.12 8 14 9.12 14 10.5C14 11.44 14.53 12.25 15.29 12.68C15.65 12.88 16.06 13 16.5 13C16.94 13 17.35 12.88 17.71 12.68Z" fill="black"/>
</svg>
