<svg width="24" height="24" viewBox="0 0 24 24" fill="none" xmlns="http://www.w3.org/2000/svg">
<path d="M12 2C6.48 2 2 6.48 2 12C2 17.52 6.48 22 12 22C17.52 22 22 17.52 22 12C22 6.48 17.52 2 12 2ZM19.46 9.12L16.68 10.27C16.17 8.91 15.1 7.83 13.73 7.33L14.88 4.55C16.98 5.35 18.65 7.02 19.46 9.12ZM12 15C10.34 15 9 13.66 9 12C9 10.34 10.34 9 12 9C13.66 9 15 10.34 15 12C15 13.66 13.66 15 12 15ZM9.13 4.54L10.3 7.32C8.92 7.82 7.83 8.91 7.32 10.29L4.54 9.13C5.35 7.02 7.02 5.35 9.13 4.54ZM4.54 14.87L7.32 13.72C7.83 15.1 8.91 16.18 10.29 16.68L9.12 19.46C7.02 18.65 5.35 16.98 4.54 14.87ZM14.88 19.46L13.73 16.68C15.1 16.17 16.18 15.09 16.68 13.71L19.46 14.88C18.65 16.98 16.98 18.65 14.88 19.46Z" fill="black"/>
</svg>
