<svg width="24" height="24" viewBox="0 0 24 24" fill="none" xmlns="http://www.w3.org/2000/svg">
<path d="M21.31 9.58L24 6C20.66 3.49 16.5 2 12 2C7.5 2 3.34 3.49 0 6L12 22L15.5 17.33V14.5C15.5 11.74 17.74 9.5 20.5 9.5C20.78 9.5 21.05 9.54 21.31 9.58ZM23 16V14.5C23 13.12 21.88 12 20.5 12C19.12 12 18 13.12 18 14.5V16C17.45 16 17 16.45 17 17V21C17 21.55 17.45 22 18 22H23C23.55 22 24 21.55 24 21V17C24 16.45 23.55 16 23 16ZM22 16H19V14.5C19 13.67 19.67 13 20.5 13C21.33 13 22 13.67 22 14.5V16Z" fill="black"/>
</svg>
