<svg fill="none" height="40" viewBox="0 0 147 40" width="147" xmlns="http://www.w3.org/2000/svg"><path d="m17 23h-7.11l3.57 5-3.57 5h7.11l3.55-5z" fill="#bcecf5"/><path d="m18.63 21.84c-.36-.51-.96-.84-1.63-.84h-11l5 7-5 6.99h11c.67 0 1.27-.32 1.63-.83l4.37-6.16zm-1.63 11.16h-7.11l3.57-5-3.57-5h7.11l3.55 5z" fill="#40aabf"/><path d="m36 15h-7.11l3.57 5-3.57 5h7.11l3.55-5z" fill="#fee6fe"/><path d="m37.63 13.84c-.36-.51-.96-.84-1.63-.84h-11l5 7-5 6.99h11c.67 0 1.27-.32 1.63-.83l4.37-6.16zm-1.63 11.16h-7.11l3.57-5-3.57-5h7.11l3.55 5z" fill="#bf40bf"/><path d="m17 7h-7.11l3.57 5-3.57 5h7.11l3.55-5z" fill="#bcecf5"/><g fill="#40aabf"><path d="m18.63 5.84c-.36-.51-.96-.84-1.63-.84h-11l5 7-5 6.99h11c.67 0 1.27-.32 1.63-.83l4.37-6.16zm-1.63 11.16h-7.11l3.57-5-3.57-5h7.11l3.55 5z"/><path d="m51.728 27c-.16 0-.24-.08-.24-.24v-16.32c0-.16.08-.24.24-.24h1.824c.16 0 .24.08.24.24v14.472c0 .064.032.096.096.096h5.376c.16 0 .24.08.24.24v1.512c0 .16-.08.24-.24.24z"/><path d="m60.7814 31.8c-.032 0-.064-.024-.096-.072s-.048-.104-.048-.168v-1.464c0-.16.04-.24.12-.24h.12c.512 0 .912-.08 1.2-.24.304-.144.544-.416.72-.816.192-.384.352-.96.48-1.728l-.024-.12-3.072-11.904-.024-.072c0-.128.08-.192.24-.192h1.968c.16 0 .248.072.264.216l1.752 8.664c.016.048.032.072.048.072s.032-.024.048-.072l1.728-8.664c.032-.144.12-.216.264-.216l1.992.024c.08 0 .136.024.168.072.048.048.056.112.024.192l-3.288 12.768c-.304 1.104-.608 1.928-.912 2.472s-.728.928-1.272 1.152c-.528.224-1.288.336-2.28.336z"/><path d="m73.5483 27.144c-1.2 0-2.152-.288-2.856-.864-.688-.592-1.032-1.384-1.032-2.376v-.216c0-.16.08-.24.24-.24h1.704c.16 0 .24.064.24.192v.216c0 .432.168.8.504 1.104.336.288.752.432 1.248.432.48 0 .864-.144 1.152-.432.304-.288.456-.656.456-1.104 0-.352-.104-.648-.312-.888s-.456-.424-.744-.552c-.272-.144-.696-.336-1.272-.576-.624-.272-1.144-.536-1.56-.792-.4-.256-.76-.624-1.08-1.104s-.48-1.088-.48-1.824c0-1.088.336-1.936 1.008-2.544.688-.608 1.608-.912 2.76-.912 1.184 0 2.112.312 2.784.936.688.624 1.032 1.472 1.032 2.544v.072c0 .16-.08.24-.24.24h-1.656c-.064 0-.12-.016-.168-.048-.048-.048-.072-.104-.072-.168v-.192c0-.432-.152-.8-.456-1.104s-.696-.456-1.176-.456c-.496 0-.888.152-1.176.456s-.432.672-.432 1.104c0 .336.096.616.288.84s.424.408.696.552c.272.128.704.32 1.296.576.656.288 1.2.568 1.632.84.432.256.808.624 1.128 1.104.336.48.504 1.08.504 1.8 0 1.04-.36 1.864-1.08 2.472-.704.608-1.664.912-2.88.912z"/><path d="m84.1256 16.224c0 .16-.08.24-.24.24h-1.68c-.064 0-.096.032-.096.096v6.744c0 .64.112 1.088.336 1.344.224.24.576.352 1.056.336h.216c.16 0 .24.08.24.24v1.536c0 .16-.08.24-.24.24h-.744c-1.024 0-1.8-.2-2.328-.6-.512-.4-.768-1.16-.768-2.28v-7.56c0-.064-.032-.096-.096-.096h-.936c-.16 0-.24-.08-.24-.24v-1.2c0-.16.08-.24.24-.24h.936c.064 0 .096-.032.096-.096v-2.712c0-.16.08-.24.24-.24h1.752c.16 0 .24.08.24.24v2.712c0 .064.032.096.096.096h1.68c.16 0 .24.08.24.24z"/><path d="m87.2549 12.984c-.432 0-.784-.144-1.056-.432s-.408-.656-.408-1.104.136-.808.408-1.08c.272-.288.624-.432 1.056-.432s.776.144 1.032.432c.272.272.408.632.408 1.08 0 .464-.136.84-.408 1.128-.256.272-.6.408-1.032.408zm-.912 14.016c-.16 0-.24-.08-.24-.24v-11.736c0-.16.08-.24.24-.24h1.824c.16 0 .24.08.24.24v11.736c0 .16-.08.24-.24.24z"/><path d="m93.8774 14.688c0 .064.032.096.096.096h1.68c.16 0 .24.08.24.24v1.2c0 .16-.08.24-.24.24h-1.68c-.064 0-.096.032-.096.096v10.2c0 .16-.08.24-.24.24h-1.8c-.16 0-.24-.08-.24-.24v-10.2c0-.064-.032-.096-.096-.096h-.888c-.16 0-.24-.08-.24-.24v-1.2c0-.16.08-.24.24-.24h.888c.064 0 .096-.032.096-.096v-.624c0-1.424.296-2.44.888-3.048.592-.624 1.552-.936 2.88-.936h.312c.16 0 .24.08.24.24l-.048 1.464c0 .16-.08.24-.24.24h-.24c-.528 0-.912.176-1.152.528-.24.336-.36.864-.36 1.584z"/><path d="m97.6017 31.8c-.032 0-.064-.024-.096-.072s-.048-.104-.048-.168v-1.464c0-.16.0401-.24.1201-.24h.12c.512 0 .912-.08 1.2-.24.304-.144.5439-.416.7199-.816.192-.384.3521-.96.4803-1.728l-.024-.12-3.0722-11.904-.0241-.072c0-.128.0801-.192.2401-.192h1.9679c.16 0 .248.072.264.216l1.7523 8.664c.016.048.032.072.048.072s.032-.024.048-.072l1.728-8.664c.032-.144.12-.216.264-.216l1.992.024c.08 0 .136.024.168.072.048.048.056.112.024.192l-3.288 12.768c-.304 1.104-.608 1.928-.912 2.472s-.728.928-1.272 1.152c-.5282.224-1.2883.336-2.2803.336z"/><path d="m108.419 12.984c-.432 0-.784-.144-1.056-.432s-.408-.656-.408-1.104.136-.808.408-1.08c.272-.288.624-.432 1.056-.432s.776.144 1.032.432c.272.272.408.632.408 1.08 0 .464-.136.84-.408 1.128-.256.272-.6.408-1.032.408zm-.912 14.016c-.16 0-.24-.08-.24-.24v-11.736c0-.16.08-.24.24-.24h1.824c.16 0 .24.08.24.24v11.736c0 .16-.08.24-.24.24z"/><path d="m117.058 14.616c1.008 0 1.776.344 2.304 1.032.544.672.815 1.632.815 2.88v8.232c0 .16-.08.24-.239.24h-1.824c-.16 0-.241-.08-.241-.24v-8.04c0-.672-.144-1.192-.432-1.56s-.687-.552-1.199-.552c-.56 0-.992.2-1.296.6-.304.384-.456.92-.456 1.608v7.944c0 .16-.081.24-.241.24h-1.824c-.16 0-.239-.08-.239-.24v-11.736c0-.16.079-.24.239-.24h1.824c.16 0 .241.08.241.24v.624c0 .032.015.056.047.072.032 0 .064-.016.096-.048.576-.704 1.385-1.056 2.425-1.056z"/><path d="m128.065 15.024c0-.16.08-.24.24-.24h1.824c.16 0 .24.08.24.24v11.616c0 1.68-.384 2.976-1.152 3.888-.768.928-2.088 1.392-3.96 1.392l-.648-.024c-.16-.016-.24-.104-.24-.264v-1.536c0-.16.088-.24.264-.24 1.312.048 2.208-.216 2.688-.792.496-.56.744-1.44.744-2.64v-.504c0-.032-.016-.048-.048-.048-.016-.016-.04-.008-.072.024-.544.736-1.32 1.104-2.328 1.104-1.056 0-1.872-.336-2.448-1.008-.56-.688-.84-1.616-.84-2.784v-4.8c0-1.184.288-2.112.864-2.784.576-.688 1.384-1.032 2.424-1.032s1.816.368 2.328 1.104c.032.032.056.04.072.024.032-.016.048-.04.048-.072zm-1.704 9.984c.512 0 .92-.176 1.224-.528.32-.368.48-.84.48-1.416v-4.512c0-.576-.16-1.048-.48-1.416-.304-.368-.712-.552-1.224-.552s-.928.184-1.248.552-.48.84-.48 1.416v4.512c0 .576.16 1.048.48 1.416.32.352.736.528 1.248.528z"/></g></svg>