<svg width="100" height="100" viewBox="0 0 100 100" fill="none" xmlns="http://www.w3.org/2000/svg">
<path d="M62.1363 92.3097C62.3634 92.6985 62.7831 92.938 63.2372 92.938H73.127C74.1056 92.938 74.7173 91.8908 74.2279 91.053L38.3038 29.5442C37.8145 28.7064 36.5912 28.7064 36.1019 29.5442L30.8225 38.5835C30.8024 38.6179 30.8024 38.6603 30.8225 38.6947L30.8289 38.7056C30.8694 38.7749 30.8188 38.8615 30.7378 38.8615C30.7002 38.8615 30.6655 38.8814 30.6467 38.9136L0.172088 91.1152C-0.317 91.953 0.294651 93 1.27316 93H47.5951C48.5737 93 49.1853 91.9528 48.696 91.115L43.9577 83.0022C43.7307 82.6134 43.311 82.3739 42.8568 82.3739H19.1648C18.6755 82.3739 18.3696 81.8503 18.6143 81.4314L36.6481 50.5541C36.8927 50.1352 37.5044 50.1352 37.749 50.5541L62.1363 92.3097Z" fill="#7551C2"/>
<path d="M43.9699 16.0728C43.7428 16.4616 43.7428 16.9406 43.9699 17.3294L87.762 92.3097C87.9891 92.6985 88.4088 92.938 88.8629 92.938H98.7268C99.7055 92.938 100.317 91.8908 99.8278 91.053L51.1037 7.62834C50.6144 6.79055 49.3911 6.79055 48.9018 7.62834L43.9699 16.0728Z" fill="#7551C2"/>
</svg>
